# Blender v2.70 (sub 0) OBJ File: 'roads.blend'
# www.blender.org
mtllib road-flat.mtl
o Cube_Cube.001
v -10.000000 0.500000 10.000000
v -10.000000 0.500000 -10.000000
v 10.000000 0.500000 -10.000000
v 10.000000 0.500000 10.000000
v -10.000000 0.500000 0.000000
v 0.000000 0.500000 -10.000000
v 10.000000 0.500000 0.000000
v 0.000000 0.500000 10.000000
v 0.000000 0.500000 0.000000
v -10.000000 0.500000 -5.000000
v 5.000000 0.500000 -10.000000
v 10.000000 0.500000 5.000000
v -5.000000 0.500000 10.000000
v -10.000000 0.500000 5.000000
v -5.000000 0.500000 -10.000000
v 10.000000 0.500000 -5.000000
v 5.000000 0.500000 10.000000
v -5.000000 0.500000 0.000000
v 5.000000 0.500000 0.000000
v 0.000000 0.500000 5.000000
v 0.000000 0.500000 -5.000000
v -5.000000 0.500000 -5.000000
v -5.000000 0.500000 5.000000
v 5.000000 0.500000 5.000000
v 5.000000 0.500000 -5.000000
v -10.000000 0.500000 -7.500000
v 7.500000 0.500000 -10.000000
v 10.000000 0.500000 7.500000
v -7.500000 0.500000 10.000000
v -10.000000 0.500000 7.500000
v -7.500000 0.500000 -10.000000
v 10.000000 0.500000 -7.500000
v 7.500000 0.500000 10.000000
v -7.500000 0.500000 0.000000
v 7.500000 0.500000 0.000000
v 0.000000 0.500000 7.500000
v 0.000000 0.500000 -2.500000
v -10.000000 0.500000 -2.500000
v 2.500000 0.500000 -10.000000
v 10.000000 0.500000 2.500000
v -2.500000 0.500000 10.000000
v -10.000000 0.500000 2.500000
v -2.500000 0.500000 -10.000000
v 10.000000 0.500000 -2.500000
v 2.500000 0.500000 10.000000
v -2.500000 0.500000 0.000000
v 2.500000 0.500000 0.000000
v 0.000000 0.500000 2.500000
v 0.000000 0.500000 -7.500000
v -7.500000 0.500000 -5.000000
v -2.500000 0.500000 -5.000000
v -5.000000 0.500000 -2.500000
v -5.000000 0.500000 -7.500000
v -7.500000 0.500000 5.000000
v -2.500000 0.500000 5.000000
v -5.000000 0.500000 7.500000
v -5.000000 0.500000 2.500000
v 2.500000 0.500000 5.000000
v 7.500000 0.500000 5.000000
v 5.000000 0.500000 7.500000
v 5.000000 0.500000 2.500000
v 2.500000 0.500000 -5.000000
v 7.500000 0.500000 -5.000000
v 5.000000 0.500000 -2.500000
v 5.000000 0.500000 -7.500000
v -7.500000 0.500000 -7.500000
v -7.500000 0.500000 2.500000
v 2.500000 0.500000 2.500000
v 2.500000 0.500000 -7.500000
v -7.500000 0.500000 -2.500000
v -2.500000 0.500000 -2.500000
v -2.500000 0.500000 -7.500000
v -7.500000 0.500000 7.500000
v -2.500000 0.500000 7.500000
v -2.500000 0.500000 2.500000
v 2.500000 0.500000 7.500000
v 7.500000 0.500000 7.500000
v 7.500000 0.500000 2.500000
v 2.500000 0.500000 -2.500000
v 7.500000 0.500000 -2.500000
v 7.500000 0.500000 -7.500000
vt 0.125097 0.874922
vt 0.125102 0.999894
vt 0.000131 0.999900
vt 0.000125 0.874928
vt 0.125077 0.375030
vt 0.125081 0.500004
vt 0.000106 0.500009
vt 0.000102 0.375033
vt 0.624964 0.375020
vt 0.624967 0.499990
vt 0.499997 0.499993
vt 0.499994 0.375023
vt 0.624982 0.874901
vt 0.624987 0.999871
vt 0.500016 0.999877
vt 0.500011 0.874906
vt 0.125085 0.624978
vt 0.125091 0.749950
vt 0.000118 0.749956
vt 0.000112 0.624983
vt 0.375030 0.624969
vt 0.375035 0.749940
vt 0.250063 0.749945
vt 0.250058 0.624973
vt 0.375040 0.874911
vt 0.375045 0.999882
vt 0.250074 0.999888
vt 0.250068 0.874917
vt 0.125077 0.125080
vt 0.125076 0.250055
vt 0.000100 0.250055
vt 0.000102 0.125078
vt 0.375021 0.125084
vt 0.375021 0.250055
vt 0.250050 0.250055
vt 0.250050 0.125083
vt 0.375023 0.375026
vt 0.375026 0.499997
vt 0.250054 0.500001
vt 0.250051 0.375028
vt 0.624957 0.125083
vt 0.624960 0.250051
vt 0.499991 0.250053
vt 0.499990 0.125084
vt 0.874890 0.125074
vt 0.874896 0.250042
vt 0.749928 0.250047
vt 0.749924 0.125079
vt 0.874902 0.375011
vt 0.874907 0.499980
vt 0.749937 0.499985
vt 0.749933 0.375016
vt 0.624972 0.624960
vt 0.624977 0.749930
vt 0.500006 0.749935
vt 0.500001 0.624964
vt 0.874912 0.624950
vt 0.874917 0.749920
vt 0.749947 0.749926
vt 0.749942 0.624955
vt 0.874922 0.874890
vt 0.874927 0.999860
vt 0.749957 0.999866
vt 0.749952 0.874896
vt 0.125081 0.000106
vt 0.000106 0.000100
vt 0.250053 0.000111
vt 0.375023 0.000115
vt 0.499990 0.000117
vt 0.624955 0.000117
vt 0.749920 0.000114
vt 0.874884 0.000108
vt 0.999848 0.000100
vt 0.999857 0.125067
vt 0.999865 0.250035
vt 0.999871 0.375005
vt 0.999877 0.499975
vt 0.999882 0.624945
vt 0.999887 0.749915
vt 0.999892 0.874885
vt 0.999897 0.999855
vn 0.000000 1.000000 0.000000
usemtl None
s off
f 66/1/1 31/2/1 2/3/1 26/4/1
f 67/5/1 34/6/1 5/7/1 42/8/1
f 68/9/1 47/10/1 9/11/1 48/12/1
f 69/13/1 39/14/1 6/15/1 49/16/1
f 70/17/1 50/18/1 10/19/1 38/20/1
f 71/21/1 51/22/1 22/23/1 52/24/1
f 72/25/1 43/26/1 15/27/1 53/28/1
f 73/29/1 54/30/1 14/31/1 30/32/1
f 74/33/1 55/34/1 23/35/1 56/36/1
f 75/37/1 46/38/1 18/39/1 57/40/1
f 76/41/1 58/42/1 20/43/1 36/44/1
f 77/45/1 59/46/1 24/47/1 60/48/1
f 78/49/1 35/50/1 19/51/1 61/52/1
f 79/53/1 62/54/1 21/55/1 37/56/1
f 80/57/1 63/58/1 25/59/1 64/60/1
f 81/61/1 27/62/1 11/63/1 65/64/1
f 50/18/1 66/1/1 26/4/1 10/19/1
f 22/23/1 53/28/1 66/1/1 50/18/1
f 53/28/1 15/27/1 31/2/1 66/1/1
f 54/30/1 67/5/1 42/8/1 14/31/1
f 23/35/1 57/40/1 67/5/1 54/30/1
f 57/40/1 18/39/1 34/6/1 67/5/1
f 58/42/1 68/9/1 48/12/1 20/43/1
f 24/47/1 61/52/1 68/9/1 58/42/1
f 61/52/1 19/51/1 47/10/1 68/9/1
f 62/54/1 69/13/1 49/16/1 21/55/1
f 25/59/1 65/64/1 69/13/1 62/54/1
f 65/64/1 11/63/1 39/14/1 69/13/1
f 34/6/1 70/17/1 38/20/1 5/7/1
f 18/39/1 52/24/1 70/17/1 34/6/1
f 52/24/1 22/23/1 50/18/1 70/17/1
f 46/38/1 71/21/1 52/24/1 18/39/1
f 9/11/1 37/56/1 71/21/1 46/38/1
f 37/56/1 21/55/1 51/22/1 71/21/1
f 51/22/1 72/25/1 53/28/1 22/23/1
f 21/55/1 49/16/1 72/25/1 51/22/1
f 49/16/1 6/15/1 43/26/1 72/25/1
f 29/65/1 73/29/1 30/32/1 1/66/1
f 13/67/1 56/36/1 73/29/1 29/65/1
f 56/36/1 23/35/1 54/30/1 73/29/1
f 41/68/1 74/33/1 56/36/1 13/67/1
f 8/69/1 36/44/1 74/33/1 41/68/1
f 36/44/1 20/43/1 55/34/1 74/33/1
f 55/34/1 75/37/1 57/40/1 23/35/1
f 20/43/1 48/12/1 75/37/1 55/34/1
f 48/12/1 9/11/1 46/38/1 75/37/1
f 45/70/1 76/41/1 36/44/1 8/69/1
f 17/71/1 60/48/1 76/41/1 45/70/1
f 60/48/1 24/47/1 58/42/1 76/41/1
f 33/72/1 77/45/1 60/48/1 17/71/1
f 4/73/1 28/74/1 77/45/1 33/72/1
f 28/74/1 12/75/1 59/46/1 77/45/1
f 59/46/1 78/49/1 61/52/1 24/47/1
f 12/75/1 40/76/1 78/49/1 59/46/1
f 40/76/1 7/77/1 35/50/1 78/49/1
f 47/10/1 79/53/1 37/56/1 9/11/1
f 19/51/1 64/60/1 79/53/1 47/10/1
f 64/60/1 25/59/1 62/54/1 79/53/1
f 35/50/1 80/57/1 64/60/1 19/51/1
f 7/77/1 44/78/1 80/57/1 35/50/1
f 44/78/1 16/79/1 63/58/1 80/57/1
f 63/58/1 81/61/1 65/64/1 25/59/1
f 16/79/1 32/80/1 81/61/1 63/58/1
f 32/80/1 3/81/1 27/62/1 81/61/1
