# Blender v2.70 (sub 0) OBJ File: ''
# www.blender.org
mtllib ramp.mtl
o Cube.002
v 1.722772 0.001531 1.722772
v -1.722772 0.001531 1.722772
v -1.722769 0.001531 -1.722772
v -1.722772 1.048191 1.722769
v 1.722772 0.001531 -1.722772
v 1.722769 1.048191 1.722772
vt 0.909470 0.910624
vt 0.909470 0.039982
vt 1.780113 0.039982
vt 1.162529 1.781269
vt 2.033171 1.781267
vt 2.033171 2.045744
vt 0.909470 0.949908
vt 0.038829 0.039982
vt 1.427006 1.781267
vt 1.162529 1.781266
vt 1.162529 0.910624
vt 0.909470 1.743679
vt 1.162529 1.820551
vt 0.038828 0.949908
vt 1.780113 0.910624
vt 1.427006 0.910624
vn 0.000000 -1.000000 -0.000000
vn -1.000000 -0.000000 -0.000001
vn 0.000000 0.956827 -0.290657
vn -0.000001 -0.000000 1.000000
vn 1.000000 0.000002 0.000000
vn 0.000000 0.000002 1.000000
usemtl Material.001
s off
f 1/1/1 2/2/1 3/3/1
f 3/4/2 2/5/2 4/6/2
f 3/2/3 4/7/3 5/8/3
f 1/9/4 6/10/4 4/11/4
f 1/12/5 5/11/5 6/13/5
f 4/7/3 6/14/3 5/8/3
f 5/15/1 1/1/1 3/3/1
f 2/16/6 1/9/6 4/11/6
